<svg xmlns="http://www.w3.org/2000/svg" xmlns:xlink="http://www.w3.org/1999/xlink" width="51" height="46" viewBox="0 0 51 46">
    <defs>
        <path id="a" d="M.004 45.996h49.394V0H.004z"/>
    </defs>
    <g fill="none" fill-rule="evenodd" transform="translate(.296)">
        <mask id="b" fill="#fff">
            <use xlink:href="#a"/>
        </mask>
        <path fill="#459D68" d="M6.149 24.726h12.104v-3.381H6.15v3.38zm0 7.749h12.104v-3.382H6.15v3.382zm0 7.115h24.208v-3.382H6.15v3.382zm25.81-36.191c.796.07 1.15.67 1.15 1.25v6.292c.264-.251.53-.503.797-.753l2.601-2.511V4.244c0-.053-.053-.3-.07-.44-.142-.775-.46-1.585-1.133-2.307-.69-.775-1.522-1.162-2.23-1.356C32.72.053 32.4.035 32.048 0H4.442c-.16.018-.337.018-.46.035-.23.035-.46.088-.673.141-.16.053-.336.123-.46.159-.16.052-.318.158-.478.229-1.22.598-2.07 1.99-2.265 2.976-.035.229-.07.475-.106.704v37.512c0 .035.053.475.106.704.053.23.142.44.213.67.053.105.123.246.159.352.566 1.268 2.123 2.254 3.185 2.412.248.036.496.088.743.106h27.677c.053 0 .46-.053.672-.088.213-.035.531-.123.761-.211.584-.23 1.204-.564 1.788-1.198a4.62 4.62 0 0 0 1.061-1.972c.053-.265.107-.529.142-.793V25.015L33.109 28.3v13.033c.018.705-.601 1.268-1.115 1.268h-27.5c-.778-.106-1.096-.704-1.096-1.25V4.667c.017-.088.017-.211.017-.282.071-.563.69-1.021 1.115-.986h27.43zM30.384 6.48H6.123v10.778H26.53l3.854-3.692V6.48zM9.52 13.86h17.466V9.88H9.52v3.98zm17.583 15.657l-4.126-4.105-2.211 6.288 6.264-2.113.073-.07zM24.207 24.1l4.14 4.12 4.762-4.585v.018l3.398-3.27v-.017L49.398 7.96l-4.034-4.156L24.207 24.1z" mask="url(#b)"/>
    </g>
</svg>
