<svg xmlns="http://www.w3.org/2000/svg" xmlns:xlink="http://www.w3.org/1999/xlink" width="49" height="45" viewBox="0 0 49 45">
    <defs>
        <path id="a" d="M47.443 44.182H.042V.632h47.401v43.55z"/>
    </defs>
    <g fill="none" fill-rule="evenodd" transform="translate(.273)">
        <mask id="b" fill="#fff">
            <use xlink:href="#a"/>
        </mask>
        <path fill="#459D68" d="M39.778 21.67a.7.7 0 0 0-.696-.7h-4.191a.7.7 0 0 0-.696.7v4.91h-4.887a.7.7 0 0 0-.696.7v4.212a.7.7 0 0 0 .696.699h4.887v4.911a.7.7 0 0 0 .696.7h4.191a.7.7 0 0 0 .696-.7v-4.911h4.887a.7.7 0 0 0 .696-.7V27.28a.7.7 0 0 0-.696-.7h-4.887v-4.91zM4.191 4.845c-5.589 5.615-5.587 14.728 0 20.343l18.55 18.583a1.39 1.39 0 0 0 1.97 0l3.905-3.91a1.408 1.408 0 0 0 .006-1.983 12.05 12.05 0 0 1-3.499-8.493c0-6.585 5.311-11.922 11.864-11.922 2.772 0 5.395.956 7.497 2.682a1.393 1.393 0 0 0 2.204-.632c1.73-5.072.448-10.775-3.424-14.666a14.262 14.262 0 0 0-19.535-.665C18.105-.762 9.552-.542 4.19 4.846z" mask="url(#b)"/>
    </g>
</svg>
