<svg xmlns="http://www.w3.org/2000/svg" xmlns:xlink="http://www.w3.org/1999/xlink" width="54" height="50" viewBox="0 0 54 50">
    <defs>
        <path id="a" d="M53.051.279H.037V49H53.05V.279z"/>
    </defs>
    <g fill="none" fill-rule="evenodd">
        <mask id="b" fill="#fff">
            <use xlink:href="#a"/>
        </mask>
        <path fill="#459D68" d="M52.84 11.45s-.552-.673-1.167-2.327c-.614-1.715.123-2.021.185-3.307.061-1.287-.983-1.777-.983-1.777 1.228-3-1.291-3.552-1.291-3.552-.43.184-1.29 1.592-1.29 1.592-1.843-1.04-6.513-.183-6.513-.183-.983.367-1.597-.552-1.597-.552-2.15-1.776-5.1-.796-5.1-.796-.246 3.614 4.24 5.329 4.24 5.329l-.062 1.347c0 1.042-2.028 3.798-2.888 4.9-.43.245-2.15 1.103-3.38.92 0 0-4.792.305-8.232 1.285 0 0-4.854.062-7.312-1.04-2.458-1.103-7.68-2.083-10.937.795 0 0-.184.123-.43.368-.675.306-6.144 2.756-6.082 8.269 0 0 .553 1.347 1.536 1.225 0 0 .737-1.9 2.334-3.308.062 1.041.37 2.266.86 3.553 0 0 1.23 3.49 1.045 4.9 0 0 .615 2.94-1.352 3.736 0 0-.798.612-.614 1.102 0 0 2.212 8.76 2.826 11.822l.123 1.47 1.843 1.776s3.134.122 3.318-1.164c0 0-.307-1.715-1.597-2.082 0 0 .307-.613.307-.797 0-.183-1.843-6.186-1.413-7.411 0 0 .307-2.511 1.352-5.267.307 1.47.061 3.552.061 3.552-.307.613.123 1.776.123 1.776.922.49 2.335 3.798 2.335 3.798-.738.551.123 3.062.123 3.062 2.089 1.225 4.423.184 4.423.184-.122-1.102-.86-2.389-.86-2.389l.062-1.286c-1.352-1.593-2.028-5.696-2.028-5.696s.43-3.308 3.38-6.31c2.58.797 6.328 1.471 11.673 1.042 0 0 2.028 5.635 4.117 8.882 0 0 .86 4.164.492 7.533l2.089 2.267s2.764.857 4.178-.674c0 0-.492-.919-1.106-1.715 2.272-.123 1.658-1.286 1.658-1.286l-1.72-1.655.184-.795s-2.15-3.798-1.105-5.758v-.367l-.615-5.513c.062-.49.184-1.286.246-1.96.123-.061 4.055-2.327 4.853-10.229.492-2.572 1.414-3.49 1.414-3.49 2.335 1.04 4.854.183 4.854.183 2.949.429 3.318-1.348 3.318-1.348l-.123-.183.307-.307c.368-.673-.061-2.143-.061-2.143" mask="url(#b)"/>
    </g>
</svg>
