<svg xmlns="http://www.w3.org/2000/svg" xmlns:xlink="http://www.w3.org/1999/xlink" width="41" height="41" viewBox="0 0 41 41">
    <defs>
        <path id="a" d="M.029 41H41V0H.029z"/>
    </defs>
    <g fill="none" fill-rule="evenodd">
        <mask id="b" fill="#fff">
            <use xlink:href="#a"/>
        </mask>
        <path fill="#F8F8F8" d="M32.985 23.286l-.224.149-.536 2.771a.978.978 0 0 1-.76.76l-2.771.536-1.55 2.369a.978.978 0 0 1-.997.402l-.73-.149L31.941 41l1.907-6.674L41 35.756l-8.015-12.47zm-24.97 0L0 35.756l7.151-1.43L9.058 41l6.525-10.876-.73.15a.979.979 0 0 1-.998-.403l-1.55-2.37-2.77-.535a.978.978 0 0 1-.76-.76l-.536-2.771-.224-.149zM20.5 7.151a8.083 8.083 0 0 0-8.105 8.105A8.083 8.083 0 0 0 20.5 23.36a8.083 8.083 0 0 0 8.105-8.104A8.083 8.083 0 0 0 20.5 7.15zm-.566-2.86c.187-.01.377 0 .566 0 6.039 0 10.965 4.926 10.965 10.965S26.54 26.22 20.5 26.22 9.535 21.295 9.535 15.256c0-5.85 4.62-10.67 10.4-10.965zM20.5 0l-2.667 1.817-3.173-.67-1.773 2.712-3.173.596-.596 3.188-2.712 1.773.656 3.158-1.818 2.682 1.818 2.667-.656 3.158 2.712 1.773.596 3.188 3.173.596 1.773 2.711 3.173-.67 2.667 1.833 2.667-1.833 3.173.67 1.773-2.71 3.173-.597.596-3.188 2.712-1.773-.656-3.158 1.818-2.667-1.818-2.682.656-3.158-2.712-1.773-.596-3.188-3.173-.596-1.773-2.712-3.173.67L20.5 0z" mask="url(#b)"/>
    </g>
</svg>
