<svg xmlns="http://www.w3.org/2000/svg" xmlns:xlink="http://www.w3.org/1999/xlink" width="46" height="45" viewBox="0 0 46 45">
    <defs>
        <path id="a" d="M0 45h46V0H0z"/>
    </defs>
    <g fill="none" fill-rule="evenodd">
        <mask id="b" fill="#fff">
            <use xlink:href="#a"/>
        </mask>
        <path fill="#F0F0F0" d="M23.948 13.892c2.976 0 5.033 1.31 6.765 3.042.428.425.432 1.118.007 1.547a1.092 1.092 0 0 1-1.545.008c-1.546-1.548-2.845-2.41-5.227-2.41a7.086 7.086 0 0 0-6.559 4.375h7.088a1.093 1.093 0 0 1 0 2.187h-7.6c-.014.184-.034.36-.034.547 0 .372.03.737.085 1.093h7.55a1.094 1.094 0 0 1 0 2.188h-6.833a7.071 7.071 0 0 0 6.303 3.827c2.382 0 3.681-.878 5.227-2.426a1.094 1.094 0 0 1 1.538 1.555c-1.731 1.733-3.789 3.059-6.765 3.059-3.967 0-7.345-2.503-8.677-6.015h-1.708a1.093 1.093 0 0 1 0-2.188h1.161a9.375 9.375 0 0 1-.068-1.093c0-.186.024-.363.034-.547h-1.127a1.093 1.093 0 0 1 0-2.187h1.52c1.177-3.788 4.7-6.562 8.865-6.562zm12.777-7.894c.84 0 1.665.316 2.306.957a3.292 3.292 0 0 1 0 4.648 3.268 3.268 0 0 1-4.629 0 3.292 3.292 0 0 1 0-4.648 3.271 3.271 0 0 1 2.323-.957zM46 0L24.734.376 0 25.136 20.873 46l24.734-24.743L46 0z" mask="url(#b)"/>
    </g>
</svg>
