<svg xmlns="http://www.w3.org/2000/svg" width="305" height="117" viewBox="0 0 305 117">
    <g fill="none" fill-rule="nonzero">
        <path fill="#459C68" d="M26.25 25.18v.15a.84.84 0 1 1-1.63-.41c0-.16.08-.37.14-.6a2.1 2.1 0 0 0-.58-.1 2.9 2.9 0 0 0-2.88 3c0 1.527.667 2.297 2 2.31 2 0 4.33-1.35 4.29-2.5a3.17 3.17 0 0 0-1.34-1.85zM8 16.47a10.17 10.17 0 0 1 2.57 0h.09c.365.075.677.31.85.64a16.14 16.14 0 0 0 4.47 5.35.33.33 0 0 1 0 .55 5.53 5.53 0 0 1-7-1.34 5.54 5.54 0 0 0-6.07-1.77.552.552 0 0 1-.64-.9h.06A10.36 10.36 0 0 1 8 16.47"/>
        <path fill="#459D68" d="M78.51 4.23a1.68 1.68 0 0 1 1.7-1.61h2.24L118.15 37h.09V5.22a1.7 1.7 0 0 1 1.7-1.7h10.74a1.76 1.76 0 0 1 1.7 1.7v60.22a1.68 1.68 0 0 1-1.7 1.61h-1.43a2.65 2.65 0 0 1-1.16-.45L92.73 31.08h-.09v33.37a1.7 1.7 0 0 1-1.7 1.7H80.3a1.76 1.76 0 0 1-1.7-1.7l-.09-60.22zM142.93 57.65l4.21-7.43a2.31 2.31 0 0 1 3-.54c.36.18 6.8 4.92 12.71 4.92 3.58 0 6.17-2.24 6.17-5.37 0-3.76-3.13-6.62-9.22-9-7.7-3-17.36-9-17.36-19.77 0-8.86 6.89-17.81 20.67-17.81 9.31 0 16.46 4.74 19.15 6.71 1.07.63.89 2.24.54 2.86l-4.56 6.89c-.63 1-2.24 1.79-3 1.16-.8-.45-7.34-5.37-12.79-5.37-3.22 0-5.64 2.15-5.64 4.56 0 3.31 2.68 5.82 9.75 8.68 7.07 2.86 18.07 8.23 18.07 20.4 0 9.22-8 18.52-21.12 18.52-11.63 0-18.08-4.83-20.13-6.89-.9-.91-1.17-1.27-.45-2.52zM194.29 5.22a1.7 1.7 0 0 1 1.7-1.7h37a1.7 1.7 0 0 1 1.7 1.7V15a1.7 1.7 0 0 1-1.7 1.7h-24.75v12.86h20.4a1.76 1.76 0 0 1 1.7 1.7V41a1.76 1.76 0 0 1-1.7 1.7h-20.4v21.75a1.76 1.76 0 0 1-1.7 1.7H196a1.7 1.7 0 0 1-1.7-1.7l-.01-59.23zM272.75 2.62c17.79 0 32.21 14.42 32.21 32.21s-14.42 32.21-32.21 32.21a31.93 31.93 0 0 1-32.12-32.12 32.08 32.08 0 0 1 32.12-32.3zm0 50.11a17.9 17.9 0 1 0-17.81-17.81c.065 9.809 8.001 17.745 17.81 17.81z"/>
        <path fill="#B7B7B7" d="M1.06 80.63a.4.4 0 0 1 .4-.38H2l8.39 8.07v-7.46a.4.4 0 0 1 .4-.4h2.52a.41.41 0 0 1 .4.4V95a.4.4 0 0 1-.4.38H13a.62.62 0 0 1-.27-.1L4.4 86.94v7.84a.4.4 0 0 1-.4.4H1.48a.41.41 0 0 1-.4-.4l-.02-14.15zM17.94 80.86a.4.4 0 0 1 .4-.4H27a.4.4 0 0 1 .4.4v2.29a.4.4 0 0 1-.4.4h-5.78v2.61H26a.41.41 0 0 1 .4.4v2.29a.4.4 0 0 1-.4.4h-4.78v2.84H27c.22 0 .4.18.4.4v2.29a.4.4 0 0 1-.4.4h-8.7a.4.4 0 0 1-.4-.4l.04-13.92zM30.88 80.86a.4.4 0 0 1 .38-.4h5.13a7.36 7.36 0 1 1 0 14.72h-5.14a.4.4 0 0 1-.38-.4l.01-13.92zm5.3 11.21a4.26 4.26 0 0 0 0-8.52h-2v8.52h2zM46.94 80.86a.4.4 0 0 1 .4-.4H56a.4.4 0 0 1 .4.4v2.29a.4.4 0 0 1-.4.4h-5.78v2.61H55a.41.41 0 0 1 .4.4v2.29a.4.4 0 0 1-.4.4h-4.78v2.84H56c.22 0 .4.18.4.4v2.29a.4.4 0 0 1-.4.4h-8.7a.4.4 0 0 1-.4-.4l.04-13.92zM59.88 80.86a.4.4 0 0 1 .4-.4h6.29A4.49 4.49 0 0 1 68 89.23l2.88 5.34a.4.4 0 0 1-.36.61h-2.8a.39.39 0 0 1-.34-.19l-2.8-5.57h-1.4v5.36a.41.41 0 0 1-.4.4h-2.5a.4.4 0 0 1-.4-.4V80.86zm6.41 5.89a1.69 1.69 0 0 0 1.6-1.68 1.61 1.61 0 0 0-1.6-1.6h-3.11v3.28h3.11zM74.58 80.86a.4.4 0 0 1 .4-.4h2.5a.41.41 0 0 1 .4.4v11.23h5c.22 0 .4.18.4.4v2.29a.4.4 0 0 1-.4.4H75a.4.4 0 0 1-.4-.4l-.02-13.92zM84.73 94.64l6.58-14.15a.43.43 0 0 1 .36-.23h.21a.43.43 0 0 1 .36.23l6.58 14.15a.37.37 0 0 1-.36.55h-2.33c-.38 0-.55-.13-.74-.53L94.64 93h-5.72l-.76 1.68a.78.78 0 0 1-.76.5h-2.31a.37.37 0 0 1-.36-.54zm8.64-4.5l-1.6-3.47-1.58 3.47h3.18zM101.13 80.63a.4.4 0 0 1 .4-.38h.53l8.39 8.07v-7.46a.4.4 0 0 1 .4-.4h2.52a.41.41 0 0 1 .4.4V95a.4.4 0 0 1-.4.38h-.34a.62.62 0 0 1-.27-.1l-8.31-8.35v7.84a.4.4 0 0 1-.4.4h-2.5a.41.41 0 0 1-.4-.4l-.02-14.14zM118 80.86a.4.4 0 0 1 .38-.4h5.13a7.36 7.36 0 1 1 0 14.72h-5.11a.4.4 0 0 1-.38-.4L118 80.86zm5.3 11.21a4.26 4.26 0 0 0 0-8.52h-2v8.52h2zM133.25 93.18l1-1.75a.54.54 0 0 1 .71-.13 6.28 6.28 0 0 0 3 1.16 1.32 1.32 0 0 0 1.45-1.26c0-.88-.74-1.56-2.17-2.12-1.81-.71-4.08-2.12-4.08-4.65 0-2.08 1.62-4.18 4.86-4.18a7.82 7.82 0 0 1 4.5 1.58.53.53 0 0 1 .13.67l-1.07 1.62c-.15.23-.53.42-.72.27a6.59 6.59 0 0 0-3-1.26 1.22 1.22 0 0 0-1.32 1.07c0 .78.63 1.37 2.29 2 1.66.63 4.17 1.98 4.17 4.8 0 2.17-1.87 4.35-5 4.35a6.67 6.67 0 0 1-4.73-1.62c-.13-.17-.19-.25-.02-.55zM146.22 80.86a.4.4 0 0 1 .4-.4h8.7a.4.4 0 0 1 .4.4v2.29a.4.4 0 0 1-.4.4h-5.82v2.61h4.79a.41.41 0 0 1 .4.4v2.29a.4.4 0 0 1-.4.4h-4.79v2.84h5.82c.22 0 .4.18.4.4v2.29a.4.4 0 0 1-.4.4h-8.7a.4.4 0 0 1-.4-.4V80.86zM163.57 93.18l1-1.75a.54.54 0 0 1 .71-.13 6.28 6.28 0 0 0 3 1.16 1.32 1.32 0 0 0 1.45-1.26c0-.88-.74-1.56-2.17-2.12-1.81-.71-4.08-2.12-4.08-4.65 0-2.08 1.62-4.18 4.86-4.18a7.82 7.82 0 0 1 4.5 1.58.53.53 0 0 1 .13.67l-1.07 1.62c-.15.23-.53.42-.72.27a6.59 6.59 0 0 0-3-1.26 1.22 1.22 0 0 0-1.32 1.07c0 .78.63 1.37 2.29 2 1.66.63 4.25 1.93 4.25 4.79 0 2.17-1.87 4.35-5 4.35a6.67 6.67 0 0 1-4.73-1.62c-.2-.16-.27-.24-.1-.54zM183.06 80.25a7.06 7.06 0 0 1 5.09 2 .39.39 0 0 1 0 .59l-1.64 1.7a.37.37 0 0 1-.53 0 4.3 4.3 0 1 0-2.84 7.53A4.45 4.45 0 0 0 186 91a.42.42 0 0 1 .55 0l1.64 1.75a.42.42 0 0 1 0 .57 7.21 7.21 0 0 1-5.11 2 7.57 7.57 0 1 1 0-15.14l-.02.07zM191.31 80.86a.41.41 0 0 1 .4-.4h2.5c.22 0 .4.18.4.4v5.3h6v-5.3a.4.4 0 0 1 .4-.4h2.5a.41.41 0 0 1 .4.4v13.92a.41.41 0 0 1-.4.4H201a.4.4 0 0 1-.4-.4v-5.53h-6v5.53a.4.4 0 0 1-.4.4h-2.5a.41.41 0 0 1-.4-.4l.01-13.92zM206.26 94.64l6.58-14.15a.43.43 0 0 1 .36-.23h.21a.43.43 0 0 1 .36.23l6.58 14.15a.37.37 0 0 1-.36.55h-2.33c-.38 0-.55-.13-.74-.53l-.76-1.66h-5.72l-.76 1.68a.78.78 0 0 1-.76.5h-2.31a.37.37 0 0 1-.35-.54zm8.64-4.5l-1.6-3.47-1.58 3.47h3.18zM222.68 80.86a.4.4 0 0 1 .4-.4h5.07a4.69 4.69 0 0 1 0 9.38H226v4.94a.41.41 0 0 1-.4.4h-2.48a.4.4 0 0 1-.4-.4l-.04-13.92zm5.32 5.91a1.65 1.65 0 0 0 1.66-1.66 1.6 1.6 0 0 0-1.66-1.56h-2v3.22h2zM235.62 80.86a.4.4 0 0 1 .4-.4h8.71a.4.4 0 0 1 .4.4v2.29a.4.4 0 0 1-.4.4h-5.83v2.61h4.79a.41.41 0 0 1 .4.4v2.29a.4.4 0 0 1-.4.4h-4.79v2.84h5.82c.22 0 .4.18.4.4v2.29a.4.4 0 0 1-.4.4H236a.4.4 0 0 1-.4-.4l.02-13.92zM248.53 80.63a.4.4 0 0 1 .4-.38h.53l8.39 8.07v-7.46a.4.4 0 0 1 .4-.4h2.52a.41.41 0 0 1 .4.4V95a.4.4 0 0 1-.4.38h-.34a.63.63 0 0 1-.27-.1l-8.3-8.35v7.84a.4.4 0 0 1-.4.4h-2.5a.41.41 0 0 1-.4-.4l-.03-14.14zM264.17 89.17v-1.91a.39.39 0 0 1 .4-.4h4.81a.39.39 0 0 1 .4.4v1.91a.38.38 0 0 1-.4.38h-4.81a.38.38 0 0 1-.4-.38zM278.43 80.86c0-.22.18-.4.4-.4h8.71a.4.4 0 0 1 .4.4v2.29a.4.4 0 0 1-.4.4h-5.82v2.61h4.79a.41.41 0 0 1 .4.4v2.29a.4.4 0 0 1-.4.4h-4.79v2.84h5.82c.22 0 .4.18.4.4v2.29a.4.4 0 0 1-.4.4h-8.71a.4.4 0 0 1-.4-.4V80.86zM291.34 80.63a.4.4 0 0 1 .4-.38h.53l8.39 8.07v-7.46a.4.4 0 0 1 .4-.4h2.52a.41.41 0 0 1 .4.4V95a.4.4 0 0 1-.4.38h-.34a.63.63 0 0 1-.27-.1l-8.3-8.35v7.84a.4.4 0 0 1-.4.4h-2.5a.41.41 0 0 1-.4-.4l-.03-14.14zM8.23 101.27a8.12 8.12 0 0 1 5.13 2 .37.37 0 0 1 0 .57l-1.66 1.77a.45.45 0 0 1-.57 0 3.87 3.87 0 0 0-2.75-1 4.22 4.22 0 0 0 0 8.43 5 5 0 0 0 1.87-.34v-1.22H9a.38.38 0 0 1-.4-.38V109a.39.39 0 0 1 .4-.4h4.23a.4.4 0 0 1 .38.4v5.66a.52.52 0 0 1-.17.34 10.62 10.62 0 0 1-5.21 1.37 7.55 7.55 0 1 1 0-15.1zM16.49 101.86a.4.4 0 0 1 .4-.4h8.7a.4.4 0 0 1 .4.4v2.29a.4.4 0 0 1-.4.4h-5.82v2.61h4.79a.41.41 0 0 1 .4.4v2.29a.4.4 0 0 1-.4.4h-4.79v2.84h5.83c.22 0 .4.18.4.4v2.29a.4.4 0 0 1-.4.4h-8.7a.4.4 0 0 1-.4-.4l-.01-13.92zM28.82 101.86a.41.41 0 0 1 .4-.4h2.52a.41.41 0 0 1 .4.4v13.92a.41.41 0 0 1-.4.4h-2.52a.41.41 0 0 1-.4-.4v-13.92zM37.65 104.55h-3a.4.4 0 0 1-.4-.4v-2.29a.4.4 0 0 1 .4-.4H44a.4.4 0 0 1 .4.4v2.29a.4.4 0 0 1-.4.4h-3v11.23a.41.41 0 0 1-.4.4H38a.41.41 0 0 1-.4-.4l.05-11.23zM46.48 101.86a.4.4 0 0 1 .4-.4h8.7a.4.4 0 0 1 .4.4v2.29a.4.4 0 0 1-.4.4h-5.82v2.61h4.79a.41.41 0 0 1 .4.4v2.29a.4.4 0 0 1-.4.4h-4.79v2.84h5.82c.22 0 .4.18.4.4v2.29a.4.4 0 0 1-.4.4h-8.7a.4.4 0 0 1-.4-.4v-13.92zM58.78 101.63a.4.4 0 0 1 .4-.38h.53l8.39 8.07v-7.46a.4.4 0 0 1 .4-.4H71a.41.41 0 0 1 .4.4V116a.4.4 0 0 1-.4.38h-.3a.62.62 0 0 1-.27-.1l-8.31-8.35v7.84a.4.4 0 0 1-.4.4H59.2a.41.41 0 0 1-.4-.4l-.02-14.14zM75.06 101.86a.4.4 0 0 1 .4-.4h8.7a.4.4 0 0 1 .4.4v2.29a.4.4 0 0 1-.4.4h-5.82v3h4.79a.41.41 0 0 1 .4.4v2.29a.41.41 0 0 1-.4.4h-4.79v5.11a.41.41 0 0 1-.4.4h-2.48a.4.4 0 0 1-.4-.4v-13.89zM93.37 101.25a7.57 7.57 0 1 1-7.55 7.59 7.56 7.56 0 0 1 7.55-7.59zm0 11.77a4.21 4.21 0 1 0-4.18-4.18 4.21 4.21 0 0 0 4.18 4.16v.02zM103.49 102a.5.5 0 0 1 .5-.5h2.46a.51.51 0 0 1 .5.5v5.53l4.67-5.83a.63.63 0 0 1 .4-.21h2.65a.49.49 0 0 1 .38.78l-4.92 6.16 5.36 7a.49.49 0 0 1-.4.78h-2.9a.58.58 0 0 1-.38-.15l-4.86-6.6v6.27a.51.51 0 0 1-.5.5H104a.5.5 0 0 1-.5-.5l-.01-13.73zM117.64 102a.5.5 0 0 1 .5-.5h2.46a.51.51 0 0 1 .5.5v5.53l4.67-5.83a.63.63 0 0 1 .4-.21h2.65a.49.49 0 0 1 .38.78l-4.92 6.16 5.36 7a.49.49 0 0 1-.4.78h-2.9a.58.58 0 0 1-.34-.21l-4.86-6.6v6.27a.51.51 0 0 1-.5.5h-2.46a.5.5 0 0 1-.5-.5l-.04-13.67zM131.79 101.86a.4.4 0 0 1 .4-.4h8.7a.4.4 0 0 1 .4.4v2.29a.4.4 0 0 1-.4.4h-5.82v2.61h4.79a.41.41 0 0 1 .4.4v2.29a.4.4 0 0 1-.4.4h-4.79v2.84h5.82c.22 0 .4.18.4.4v2.29a.4.4 0 0 1-.4.4h-8.7a.4.4 0 0 1-.4-.4v-13.92zM144.12 101.86a.4.4 0 0 1 .4-.4h6.29a4.49 4.49 0 0 1 1.47 8.77l2.88 5.34a.4.4 0 0 1-.36.61H152a.39.39 0 0 1-.34-.19l-2.8-5.57h-1.45v5.36a.41.41 0 0 1-.4.4h-2.5a.4.4 0 0 1-.4-.4l.01-13.92zm6.41 5.89a1.69 1.69 0 0 0 1.6-1.68 1.61 1.61 0 0 0-1.6-1.6h-3.11v3.28h3.11zM157.37 114.18l1-1.75a.54.54 0 0 1 .71-.13 6.28 6.28 0 0 0 3 1.16 1.32 1.32 0 0 0 1.45-1.26c0-.88-.74-1.56-2.17-2.12-1.81-.71-4.08-2.12-4.08-4.65 0-2.08 1.62-4.18 4.86-4.18a7.82 7.82 0 0 1 4.5 1.58.53.53 0 0 1 .13.67l-1.07 1.62c-.15.23-.53.42-.72.27a6.59 6.59 0 0 0-3-1.26 1.22 1.22 0 0 0-1.32 1.07c0 .78.63 1.37 2.29 2 1.66.63 4.25 1.93 4.25 4.79 0 2.17-1.87 4.35-5 4.35a6.67 6.67 0 0 1-4.73-1.62c-.21-.16-.27-.24-.1-.54zM176.21 101.25a7.57 7.57 0 1 1-7.55 7.59 7.56 7.56 0 0 1 7.55-7.59zm0 11.77a4.21 4.21 0 1 0-4.18-4.18 4.21 4.21 0 0 0 4.18 4.16v.02zM186.32 101.86a.4.4 0 0 1 .4-.4H193a4.49 4.49 0 0 1 1.47 8.77l2.88 5.34a.4.4 0 0 1-.36.61h-2.8a.39.39 0 0 1-.34-.19l-2.8-5.57h-1.45v5.36a.41.41 0 0 1-.4.4h-2.5a.4.4 0 0 1-.4-.4l.02-13.92zm6.41 5.89a1.69 1.69 0 0 0 1.6-1.68 1.61 1.61 0 0 0-1.6-1.6h-3.11v3.28h3.11zM206.91 101.27a8.12 8.12 0 0 1 5.13 2 .37.37 0 0 1 0 .57l-1.66 1.77a.45.45 0 0 1-.57 0 3.86 3.86 0 0 0-2.75-1 4.22 4.22 0 0 0 0 8.43 5 5 0 0 0 1.87-.34v-1.22h-1.32a.38.38 0 0 1-.4-.38V109a.39.39 0 0 1 .4-.4h4.23a.4.4 0 0 1 .38.4v5.66a.52.52 0 0 1-.17.34 10.62 10.62 0 0 1-5.21 1.37 7.55 7.55 0 1 1 0-15.1h.07zM213.28 115.64l6.58-14.15a.43.43 0 0 1 .36-.23h.21a.43.43 0 0 1 .36.23l6.58 14.15a.37.37 0 0 1-.36.55h-2.33c-.38 0-.55-.13-.74-.53l-.76-1.66h-5.72l-.76 1.68a.78.78 0 0 1-.76.5h-2.31a.37.37 0 0 1-.35-.54zm8.64-4.5l-1.6-3.47-1.58 3.47h3.18zM229.08 101.63a.4.4 0 0 1 .4-.38h.52l8.39 8.07v-7.46a.4.4 0 0 1 .4-.4h2.52a.41.41 0 0 1 .4.4V116a.4.4 0 0 1-.4.38H241a.63.63 0 0 1-.27-.1l-8.3-8.35v7.84a.4.4 0 0 1-.4.4h-2.5a.41.41 0 0 1-.4-.4l-.05-14.14zM245.35 101.86a.41.41 0 0 1 .4-.4h2.52a.41.41 0 0 1 .4.4v13.92a.41.41 0 0 1-.4.4h-2.52a.41.41 0 0 1-.4-.4v-13.92zM251.45 114.18l1-1.75a.54.54 0 0 1 .71-.13 6.29 6.29 0 0 0 3 1.16 1.32 1.32 0 0 0 1.45-1.26c0-.88-.74-1.56-2.17-2.12-1.81-.71-4.08-2.12-4.08-4.65 0-2.08 1.62-4.18 4.86-4.18a7.82 7.82 0 0 1 4.5 1.58.53.53 0 0 1 .13.67l-1.07 1.62c-.15.23-.53.42-.71.27a6.59 6.59 0 0 0-3-1.26 1.22 1.22 0 0 0-1.32 1.07c0 .78.63 1.37 2.29 2 1.66.63 4.25 1.93 4.25 4.79 0 2.17-1.87 4.35-5 4.35a6.67 6.67 0 0 1-4.73-1.62c-.21-.16-.28-.24-.11-.54zM261.92 115.64l6.58-14.15a.43.43 0 0 1 .36-.23h.21a.43.43 0 0 1 .36.23l6.57 14.15a.37.37 0 0 1-.36.55h-2.33c-.38 0-.55-.13-.74-.53l-.76-1.66h-5.72l-.76 1.68a.78.78 0 0 1-.76.5h-2.31a.37.37 0 0 1-.34-.54zm8.64-4.5l-1.6-3.47-1.58 3.47h3.18zM278.87 104.55h-3a.4.4 0 0 1-.4-.4v-2.29c0-.22.18-.4.4-.4h9.33a.4.4 0 0 1 .4.4v2.29a.4.4 0 0 1-.4.4h-3v11.23a.41.41 0 0 1-.4.4h-2.52a.41.41 0 0 1-.4-.4l-.01-11.23zM287.71 101.86a.41.41 0 0 1 .4-.4h2.52a.41.41 0 0 1 .4.4v13.92a.41.41 0 0 1-.4.4h-2.53a.41.41 0 0 1-.4-.4l.01-13.92zM294.65 101.86c0-.22.18-.4.4-.4h8.71a.4.4 0 0 1 .4.4v2.29a.4.4 0 0 1-.4.4h-5.82v2.61h4.79a.41.41 0 0 1 .4.4v2.29a.4.4 0 0 1-.4.4h-4.79v2.84h5.82c.22 0 .4.18.4.4v2.29a.4.4 0 0 1-.4.4H295a.4.4 0 0 1-.4-.4l.05-13.92z"/>
        <path fill="#459D68" d="M33.61 49.39a1.79 1.79 0 0 1 .88-.5 1.81 1.81 0 0 1 2 .86 1.81 1.81 0 0 1 3.4-.75 1.81 1.81 0 0 1 3.43-.66 1.79 1.79 0 0 1 1.52-1.58 1.82 1.82 0 0 1 1.94 1.07 1.81 1.81 0 0 1 3.48-.32A1.81 1.81 0 0 1 52 46.12a1.81 1.81 0 0 1 1.77 1.4 1.79 1.79 0 0 1 1.95-1.17A1.83 1.83 0 0 1 57.29 48a1.81 1.81 0 0 1 2.17-.73 1.88 1.88 0 0 1 1 2.34 30.72 30.72 0 0 1-48.38 6.65 1.85 1.85 0 0 1-.49-1.26 1.91 1.91 0 0 1 .54-1.32 1.52 1.52 0 0 1 .29-.23 1.87 1.87 0 0 1-.26-3.55 1.85 1.85 0 0 1 .12-3.51 1.87 1.87 0 0 1 .37-3.49 1.86 1.86 0 0 1-.94-1.91 1.89 1.89 0 0 1 1.48-1.54 1.87 1.87 0 0 1 .73-3.45 1.85 1.85 0 0 1-.77-2 1.87 1.87 0 0 1 1.59-1.42 1.87 1.87 0 0 1-.7-2 1.89 1.89 0 0 1 .96-1.16 11 11 0 0 1 .55-3.12c-2.43-.07-3.6-.09-6.66-.38a14.09 14.09 0 0 1-6.78-2.8c-5.991 16.249 1.244 34.4 16.77 42.07 15.526 7.672 34.339 2.391 43.605-12.24 9.266-14.63 5.999-33.894-7.573-44.652C41.34-2.459 21.839-1.242 9.71 11.12c2.44.24 8 3.89 9.79 6.76 4.52-5.58 13-6.67 19.13-3.27 4.18 2.33 5.82 5.77 5.34 9.13-.41 2.9-.6 3.29 1.81 7.2a2.24 2.24 0 0 1-.24 2.79c-1.13 1-2.49 1.38-3.67 0-.7-.83-2.49-1.1-2.83-.48a.94.94 0 0 0 .18 1.27 7.33 7.33 0 0 0 2.44.63c1.88.14 1.58 2.33 1.71 3.61.13 1.28-1.82 1.24-2.63 1.24a25.78 25.78 0 0 1-3.74-.56c-.11-.07-.23-.08-.21 0 .62 2.39 5.44 2.63 8.47 1.82.22-.06.34.14.33.37-.03 1.37-.82 2.37-2.84 2.77a18.6 18.6 0 0 1-8.49-.26c-.75-.17-2.34 3-2.63 3.64-.41.91-1.06 2.64.58 2.4.52-.153 1-.423 1.4-.79zM46.3 38.64a1 1 0 0 1-1 .7c-.74-.07-.8-.09-.91-.79-.16-1-.43-2.69.5-3.06a3.45 3.45 0 0 0 .66-.34.57.57 0 0 1 .87.36 9.79 9.79 0 0 1-.12 3.13zm-1-15.59c0-.75 0-2.58-.1-3.43 1.26-2.23 3.69-1.53 4.89-3.06-.9-1.4-4.28-.08-5.29 1.28-.45-1.2-2.45-2.83-4.28-3.65 2.45-1.63 8.24-3 13.82-.83.41 2.16-.21 7.47-9.07 9.69h.03z"/>
    </g>
</svg>
